<svg width="794" height="625" viewBox="0 0 794 625" fill="none" xmlns="http://www.w3.org/2000/svg">
<g clip-path="url(#clip0_309_2)">
<path d="M103.5 96.9999C101.21 99.4031 101.551 103.5 101.551 103.5L104.473 594.5C104.473 594.5 104.343 596.177 105.5 597.5C106.918 599.122 110 598.576 110 598.576L767 547.886C767 547.886 769.104 547.874 770.5 546.5C772.031 544.993 772.046 542 772.046 542L775.95 72.9999C775.95 72.9999 776.047 70.7602 774.5 68.9999C772.694 66.9445 769 67.2905 769 67.2905L110 94.647C110 94.647 105.792 94.5947 103.5 96.9999Z" fill="white" fill-opacity="0.15"/>
<path d="M783.5 45.5C791.5 50.5 792 56 791.5 70.5" stroke="white" stroke-width="8"/>
<path d="M791.5 70.5C791 85 791.5 542 791.5 550" stroke="white" stroke-width="8"/>
<path d="M791.5 550C791.5 558 782 567 775 568" stroke="white" stroke-width="8"/>
<path d="M775 568C768 569 133 621.5 120 622.5" stroke="white" stroke-width="8"/>
<path d="M120 622.5C107 623.5 100 621.5 93 616.5" stroke="white" stroke-width="8"/>
<path d="M93 616.5C91.4072 615.362 86.3711 610.729 79.5 604.216" stroke="white" stroke-width="8"/>
<path d="M783.5 45.5C775.5 40.5 669 4.5 669 4.5" stroke="white" stroke-width="8"/>
<path d="M669 4.4999C664.628 3.09154 661.001 2.72856 652 2.9999" stroke="white" stroke-width="8"/>
<path d="M652 3C652 3 38 26 23.5 27" stroke="white" stroke-width="8"/>
<path d="M23.4996 27C16.5477 27.4794 11.3198 29.6828 7.76074 33.5" stroke="white" stroke-width="8"/>
<path d="M783.5 45.5L101.5 72.5" stroke="white" stroke-width="8"/>
<path d="M101.5 72.5C101.5 72.5 105 72.5 96 72.5" stroke="white" stroke-width="8"/>
<path d="M96 72.5C91.5622 72.5 87.4891 74.6882 84.5 78.3454" stroke="white" stroke-width="8"/>
<path d="M79.4999 604.216C56.1748 582.104 11.7036 538.317 9 536" stroke="white" stroke-width="8"/>
<path d="M9 536C5.49994 533 2.00001 524 2 520.5" stroke="white" stroke-width="8"/>
<path d="M2 520.5C2 517 2.00003 66.5 2 51.5" stroke="white" stroke-width="8"/>
<path d="M2 51.5C1.99999 43.6916 3.89686 37.6446 7.76117 33.5" stroke="white" stroke-width="8"/>
<path d="M79.5 604.216V103.5" stroke="white" stroke-width="8"/>
<path d="M79.5 103.5C79.5 103.5 79.5 105.5 79.5 93.5" stroke="white" stroke-width="8"/>
<path d="M79.5 93.4998C79.5 87.4169 81.4272 82.1049 84.5 78.3452" stroke="white" stroke-width="8"/>
<path d="M84.4995 78.3454L7.76074 33.5" stroke="white" stroke-width="8"/>
<path d="M103.5 97C101.21 99.4032 101.551 103.5 101.551 103.5" stroke="white" stroke-width="8"/>
<path d="M101.551 103.5L104.473 594.5" stroke="white" stroke-width="8"/>
<path d="M104.473 594.5C104.473 594.5 104.343 596.177 105.5 597.5" stroke="white" stroke-width="8"/>
<path d="M105.5 597.5C106.918 599.122 110 598.576 110 598.576" stroke="white" stroke-width="8"/>
<path d="M110 598.576L767 547.886" stroke="white" stroke-width="8"/>
<path d="M767 547.886C767 547.886 769.104 547.874 770.5 546.5" stroke="white" stroke-width="8"/>
<path d="M770.5 546.5C772.031 544.993 772.046 542 772.046 542" stroke="white" stroke-width="8"/>
<path d="M772.046 542L775.95 73" stroke="white" stroke-width="8"/>
<path d="M775.95 73C775.95 73 776.047 70.7603 774.5 69" stroke="white" stroke-width="8"/>
<path d="M774.5 68.9999C772.694 66.9445 769 67.2905 769 67.2905" stroke="white" stroke-width="8"/>
<path d="M769 67.2905L110 94.647" stroke="white" stroke-width="8"/>
<path d="M110 94.6471C110 94.6471 105.792 94.5948 103.5 97" stroke="white" stroke-width="8"/>
<path d="M536 20.5C537.5 16 539.4 14.5 543 14.5" stroke="white" stroke-width="8"/>
<path d="M543 14.5C546.6 14.5 549.284 17.0616 550 20.5" stroke="white" stroke-width="8"/>
<path d="M536 20.5V38.3173" stroke="white" stroke-width="8"/>
<path d="M536 20.5C536 20.5 504.11 21.8267 460 23.6483" stroke="white" stroke-width="8"/>
<path d="M536 20.5C538.5 22.5 547 22.5 550 20.5" stroke="white" stroke-width="8"/>
<path d="M550 20.5C550 20.5 560.5 20.5 571 20.5" stroke="white" stroke-width="8"/>
<path d="M571 20.5C581.5 20.5 602 21.5 600.5 28" stroke="white" stroke-width="8"/>
<path d="M600.5 28C599 34.5 592.197 35.7322 577.5 36.5" stroke="white" stroke-width="8"/>
<path d="M577.5 36.5C577.5 36.5 561.334 37.2106 536 38.3173" stroke="white" stroke-width="8"/>
<path d="M550 20.5L549.5 37.5" stroke="white" stroke-width="8"/>
<path d="M536 38.3174C515.453 39.215 488.875 40.3732 460 41.6243" stroke="white" stroke-width="8"/>
<path d="M324.5 29.2056C324.5 29.2056 205.223 34 201 34" stroke="white" stroke-width="8"/>
<path d="M201 34C190.5 34 183 40 187 45" stroke="white" stroke-width="8"/>
<path d="M187 45C191 50 209 51.5 234 51" stroke="white" stroke-width="8"/>
<path d="M234 51C241.799 50.844 278.158 49.3744 324.5 47.4258" stroke="white" stroke-width="8"/>
<path d="M324.5 29.2056C324.5 29.2056 326 26.5 333.5 26.5" stroke="white" stroke-width="8"/>
<path d="M333.5 26.5C341 26.5 342.5 28.4731 342.5 28.4731" stroke="white" stroke-width="8"/>
<path d="M324.5 29.2056V47.4258" stroke="white" stroke-width="8"/>
<path d="M324.501 29.2056C324.501 29.2056 324.001 33.5 333.501 33" stroke="white" stroke-width="8"/>
<path d="M333.5 33C343 32.5 342.5 28.4731 342.5 28.4731" stroke="white" stroke-width="8"/>
<path d="M342.5 28.4732C342.5 28.4732 370.52 27.3291 384.5 26.7559" stroke="white" stroke-width="8"/>
<path d="M342.5 28.4731V46.6662" stroke="white" stroke-width="8"/>
<path d="M384.5 26.7558C384.5 26.7558 385 24 392.5 24" stroke="white" stroke-width="8"/>
<path d="M392.5 24C400 24 401 26.0786 401 26.0786" stroke="white" stroke-width="8"/>
<path d="M384.5 26.7559V44.8775" stroke="white" stroke-width="8"/>
<path d="M384.5 26.7559C384.5 26.7559 384.5 29.5001 392.5 29.5001" stroke="white" stroke-width="8"/>
<path d="M392.5 29.5C400.5 29.5 401 26.0786 401 26.0786" stroke="white" stroke-width="8"/>
<path d="M401 26.0786C416.946 25.4236 429.482 25.0989 444 24.5" stroke="white" stroke-width="8"/>
<path d="M401 26.0786V44.1699" stroke="white" stroke-width="8"/>
<path d="M444 24.5C444 24.5 444.5 21.5 452 21.5" stroke="white" stroke-width="8"/>
<path d="M452 21.5C459.5 21.5 460 23.6483 460 23.6483" stroke="white" stroke-width="8"/>
<path d="M444 24.5V42.3166" stroke="white" stroke-width="8"/>
<path d="M444 24.5C444 24.5 444.5 27.5 452 27.5" stroke="white" stroke-width="8"/>
<path d="M452 27.5001C459.5 27.5001 460 23.6484 460 23.6484" stroke="white" stroke-width="8"/>
<path d="M460 23.6484V41.6243" stroke="white" stroke-width="8"/>
<path d="M324.5 47.4256C330.353 47.1795 336.366 46.9257 342.5 46.666" stroke="white" stroke-width="8"/>
<path d="M342.5 46.6662C356.041 46.0929 370.175 45.4906 384.5 44.8774" stroke="white" stroke-width="8"/>
<path d="M384.5 44.8774C389.98 44.6428 395.487 44.4066 401 44.1699" stroke="white" stroke-width="8"/>
<path d="M401 44.1697C415.431 43.5499 429.899 42.9261 444 42.3164" stroke="white" stroke-width="8"/>
<path d="M444 42.3164C449.395 42.0832 454.735 41.852 460 41.624" stroke="white" stroke-width="8"/>
<path fill-rule="evenodd" clip-rule="evenodd" d="M388.879 277.807C383.568 281.409 371.871 295.472 361.043 311.275C358.113 315.551 355.553 318.886 355.353 318.686C354.403 317.736 358.373 300.039 361.496 291.302C365.441 280.264 365.712 278.21 363.34 277.3C360.751 276.307 357.637 280.909 349.332 298C345.189 306.525 339.162 318.9 335.937 325.5C332.713 332.1 328.703 339.154 327.026 341.176C320.921 348.535 311.824 348.357 311.197 340.867C310.831 336.491 312.94 334 317.012 334C322.465 334 321.551 330.288 315.872 329.367C304.984 327.6 298.174 339.595 305.08 348.374C308.149 352.276 313.756 353.597 320.678 352.048C328.199 350.364 334.863 343.78 340.953 332.016C343.368 327.35 345.541 324.124 345.782 324.846C346.023 325.568 344.966 331.534 343.435 338.104C340.591 350.303 340.767 352.794 344.378 351.408C345.321 351.047 349.221 346.013 353.046 340.221L360 329.692V337.623C360 347.945 361.298 350.002 367.807 349.995C370.985 349.991 373.779 349.215 376.464 347.59C380.388 345.215 380.452 345.21 382.849 347.096C385.802 349.419 390.065 349.535 394.186 347.404C396.709 346.099 397.689 346.031 399.559 347.032C405.074 349.983 411.179 345.702 421.715 331.496C425.957 325.775 429.611 321.277 429.834 321.5C430.057 321.724 428.669 324.065 426.749 326.703C419.781 336.28 418.244 342.101 421.829 345.345C424.397 347.669 427.936 347.407 433.427 344.488L438.153 341.975L440.711 343.988C445.106 347.444 451.945 346.267 458.885 340.859C462.068 338.378 462.586 338.504 462.539 341.75C462.507 344 462.987 344.556 465.176 344.809C467.643 345.094 468.255 344.333 473.035 335.027C477.597 326.145 482.636 320 485.356 320C485.722 320 484.217 323.59 482.011 327.978C477.571 336.809 477.105 339.88 479.829 342.345C482.39 344.663 484.928 344.413 489.353 341.406L493.171 338.812L495.4 340.906C498.191 343.528 501.965 343.569 506.942 341.03C510.313 339.31 510.959 339.246 512.025 340.53C513.985 342.892 518.279 342.253 522.038 339.041C526.278 335.416 526.407 335.404 527.805 338.472C529.463 342.11 533.081 342.599 538.459 339.913C540.967 338.661 543.739 336.841 544.618 335.87C546.133 334.196 546.346 334.258 548.697 337.052C551.679 340.595 555.93 340.95 560.683 338.052C565.264 335.259 572.005 326.369 571.976 323.16C571.953 320.657 571.642 320.836 566.726 326.175C560.543 332.889 557.538 334.691 555.436 332.947C552.767 330.731 553.789 327.211 558.25 323.262C573.685 309.599 582.698 297.429 583.283 289.463C583.466 286.968 583.1 286.453 580.972 286.205C575.251 285.537 562.027 299.414 552.872 315.693C549.917 320.946 545.412 327.482 542.86 330.217C537.406 336.062 534.679 336.35 534.179 331.135C533.902 328.256 534.451 327.274 538.088 324.143C550.819 313.181 557.02 306.487 560.314 300.15C564.729 291.658 565.442 289.237 564.031 287.537C563.216 286.556 562.065 286.408 559.953 287.013C552.624 289.115 541.351 302.02 531.499 319.586C525.575 330.148 520.918 335.344 519.074 333.447C518.508 332.865 520.056 328.482 523.093 322.07C526.827 314.187 527.725 311.442 526.767 310.83C526.07 310.385 524.825 310.323 524 310.691C523.175 311.059 520.025 311.262 517 311.141C509.702 310.85 503.731 314.562 497.584 323.211C486.965 338.152 483.928 340.076 489.989 328.022C492.195 323.634 494 319.105 494 317.956C494 312.771 490.424 310.632 485.849 313.081C484.738 313.676 483.633 313.966 483.394 313.727C483.155 313.488 485.024 308.457 487.549 302.548C492.264 291.51 492.543 289 489.054 289C486.403 289 485.248 290.912 476.914 309.093C471.757 320.342 468.882 325.377 466.259 327.75C464.283 329.538 462.324 331 461.904 331C461.485 331 460.632 328.543 460.008 325.539C458.938 320.383 459.017 319.869 461.437 316.307C462.847 314.233 464 311.996 464 311.335C464 309.904 460.448 308.605 458.993 309.504C458.43 309.852 453.477 315.707 447.988 322.515C437.954 334.959 433.171 339.532 429.536 340.16C425.079 340.931 427.739 334.939 437.898 321.322C440.866 317.344 440.134 315 435.924 315C433.306 315 432.915 314.71 433.563 313.25C435.307 309.322 435.248 302.932 433.45 300.945C431.035 298.276 428.768 298.506 425.515 301.75C422.883 304.375 422.782 304.83 423.302 311.751C423.837 318.877 423.78 319.102 420.004 324.751C415.09 332.104 407.859 339.845 407.313 338.338C407.081 337.698 408.97 333.037 411.511 327.978C414.051 322.92 415.89 318.155 415.596 317.391C415.049 315.964 411.849 315.484 410.68 316.653C410.321 317.013 407.169 317.35 403.677 317.403C394.187 317.548 388.943 321.665 380.803 335.366C379.037 338.339 376.645 340.65 373.872 342.065C369.817 344.134 369.582 344.149 368.319 342.422C363.926 336.413 370.409 318.108 386.624 290.738C390.131 284.818 393 279.332 393 278.547C393 276.25 391.557 275.991 388.879 277.807ZM572.637 301.22C568.949 306.767 562 314.083 562 312.419C562 310.163 575.247 293.242 575.775 294.825C575.979 295.438 574.567 298.316 572.637 301.22ZM553.714 301.25C551.723 304.137 547.972 308.525 545.378 311C540.923 315.251 540.773 315.315 542.685 312.166C545.841 306.966 556.088 294.754 556.744 295.41C557.068 295.734 555.704 298.362 553.714 301.25ZM430 307.441C430 308.784 429.55 310.16 429 310.5C428.417 310.861 428 309.844 428 308.059C428 306.377 428.45 305 429 305C429.55 305 430 306.098 430 307.441ZM515.653 317.538C517.343 321.943 507.803 336 503.123 336C497.976 336 499.966 328.103 506.936 320.873C511.733 315.896 514.602 314.798 515.653 317.538ZM403.418 325.799C403.318 330.731 399.375 337.184 394.71 340.05C383.997 346.629 387.242 331.9 398.419 323.214C402.283 320.212 403.517 320.85 403.418 325.799ZM452.985 333.527C453.002 336.973 450.574 341 448.478 341C447.144 341 445 338.1 445 336.294C445 335.833 446.413 333.741 448.14 331.646C451.591 327.459 452.957 327.99 452.985 333.527Z" fill="black"/>
</g>
<defs>
<clipPath id="clip0_309_2">
<rect width="794" height="625" fill="white"/>
</clipPath>
</defs>
</svg>
