<svg width="282" height="77" viewBox="0 0 282 77" fill="none" xmlns="http://www.w3.org/2000/svg">
<path fill-rule="evenodd" clip-rule="evenodd" d="M86.8786 1.80694C81.5676 5.40894 69.8706 19.4719 59.0426 35.2749C56.1126 39.5509 53.5526 42.8859 53.3526 42.6859C52.4026 41.7359 56.3726 24.0389 59.4956 15.3019C63.4406 4.26393 63.7116 2.20992 61.3396 1.29992C58.7506 0.306916 55.6366 4.90893 47.3316 21.9999C43.1886 30.5249 37.1616 42.8999 33.9366 49.4999C30.7126 56.0999 26.7026 63.1539 25.0256 65.1759C18.9206 72.5349 9.8236 72.3569 9.1966 64.8669C8.8306 60.4909 10.9396 57.9999 15.0116 57.9999C20.4646 57.9999 19.5506 54.2879 13.8716 53.3669C2.98362 51.5999 -3.8264 63.5949 3.0796 72.3739C6.1486 76.2759 11.7556 77.5969 18.6776 76.0479C26.1986 74.3639 32.8626 67.7799 38.9526 56.0159C41.3676 51.3499 43.5406 48.1239 43.7816 48.8459C44.0226 49.5679 42.9656 55.5339 41.4346 62.1039C38.5906 74.3029 38.7666 76.7939 42.3776 75.4079C43.3206 75.0469 47.2206 70.0129 51.0456 64.2209L57.9996 53.6919V61.6229C57.9996 71.9449 59.2976 74.0019 65.8066 73.9949C68.9846 73.9909 71.7786 73.2149 74.4636 71.5899C78.3876 69.2149 78.4516 69.2099 80.8486 71.0959C83.8016 73.4189 88.0646 73.5349 92.1856 71.4039C94.7086 70.0989 95.6886 70.0309 97.5586 71.0319C103.074 73.9829 109.179 69.7019 119.715 55.4959C123.957 49.7749 127.611 45.2769 127.834 45.4999C128.057 45.7239 126.669 48.0649 124.749 50.7029C117.781 60.2799 116.244 66.1009 119.829 69.3449C122.397 71.6689 125.936 71.4069 131.427 68.4879L136.153 65.9749L138.711 67.9879C143.106 71.4439 149.945 70.2669 156.885 64.8589C160.068 62.3779 160.586 62.5039 160.539 65.7499C160.507 67.9999 160.987 68.5559 163.176 68.8089C165.643 69.0939 166.255 68.3329 171.035 59.0269C175.597 50.1449 180.636 43.9999 183.356 43.9999C183.722 43.9999 182.217 47.5899 180.011 51.9779C175.571 60.8089 175.105 63.8799 177.829 66.3449C180.39 68.6629 182.928 68.4129 187.353 65.4059L191.171 62.8119L193.4 64.9059C196.191 67.5279 199.965 67.5689 204.942 65.0299C208.313 63.3099 208.959 63.2459 210.025 64.5299C211.985 66.8919 216.279 66.2529 220.038 63.0409C224.278 59.4159 224.407 59.4039 225.805 62.4719C227.463 66.1099 231.081 66.5989 236.459 63.9129C238.967 62.6609 241.739 60.8409 242.618 59.8699C244.133 58.1959 244.346 58.2579 246.697 61.0519C249.679 64.5949 253.93 64.9499 258.683 62.0519C263.264 59.2589 270.005 50.3689 269.976 47.1599C269.953 44.6569 269.642 44.8359 264.726 50.1749C258.543 56.8889 255.538 58.6909 253.436 56.9469C250.767 54.7309 251.789 51.2109 256.25 47.2619C271.685 33.5989 280.698 21.4289 281.283 13.4629C281.466 10.9679 281.1 10.4529 278.972 10.2049C273.251 9.53692 260.027 23.4139 250.872 39.6929C247.917 44.9459 243.412 51.4819 240.86 54.2169C235.406 60.0619 232.679 60.3499 232.179 55.1349C231.902 52.2559 232.451 51.2739 236.088 48.1429C248.819 37.1809 255.02 30.4869 258.314 24.1499C262.729 15.6579 263.442 13.2369 262.031 11.5369C261.216 10.5559 260.065 10.4079 257.953 11.0129C250.624 13.1149 239.351 26.0199 229.499 43.5859C223.575 54.1479 218.918 59.3439 217.074 57.4469C216.508 56.8649 218.056 52.4819 221.093 46.0699C224.827 38.1869 225.725 35.4419 224.767 34.8299C224.07 34.3849 222.825 34.3229 222 34.6909C221.175 35.0589 218.025 35.2619 215 35.1409C207.702 34.8499 201.731 38.5619 195.584 47.2109C184.965 62.1519 181.928 64.0759 187.989 52.0219C190.195 47.6339 192 43.1049 192 41.9559C192 36.7709 188.424 34.6319 183.849 37.0809C182.738 37.6759 181.633 37.9659 181.394 37.7269C181.155 37.4879 183.024 32.4569 185.549 26.5479C190.264 15.5099 190.543 12.9999 187.054 12.9999C184.403 12.9999 183.248 14.9119 174.914 33.0929C169.757 44.3419 166.882 49.3769 164.259 51.7499C162.283 53.5379 160.324 54.9999 159.904 54.9999C159.485 54.9999 158.632 52.5429 158.008 49.5389C156.938 44.3829 157.017 43.8689 159.437 40.3069C160.847 38.2329 162 35.9959 162 35.3349C162 33.9039 158.448 32.6049 156.993 33.5039C156.43 33.8519 151.477 39.7069 145.988 46.5149C135.954 58.9589 131.171 63.5319 127.536 64.1599C123.079 64.9309 125.739 58.9389 135.898 45.3219C138.866 41.3439 138.134 38.9999 133.924 38.9999C131.306 38.9999 130.915 38.7099 131.563 37.2499C133.307 33.3219 133.248 26.9319 131.45 24.9449C129.035 22.2759 126.768 22.5059 123.515 25.7499C120.883 28.3749 120.782 28.8299 121.302 35.7509C121.837 42.8769 121.78 43.1019 118.004 48.7509C113.09 56.1039 105.859 63.8449 105.313 62.3379C105.081 61.6979 106.97 57.0369 109.511 51.9779C112.051 46.9199 113.89 42.1549 113.596 41.3909C113.049 39.9639 109.849 39.4839 108.68 40.6529C108.321 41.0129 105.169 41.3499 101.677 41.4029C92.1866 41.5479 86.9426 45.6649 78.8026 59.3659C77.0366 62.3389 74.6446 64.6499 71.8716 66.0649C67.8166 68.1339 67.5816 68.1489 66.3186 66.4219C61.9256 60.4129 68.4086 42.1079 84.6236 14.7379C88.1306 8.81793 90.9996 3.33193 90.9996 2.54693C90.9996 0.249925 89.5566 -0.00906491 86.8786 1.80694ZM270.637 25.2199C266.949 30.7669 260 38.0829 260 36.4189C260 34.1629 273.247 17.2419 273.775 18.8249C273.979 19.4379 272.567 22.3159 270.637 25.2199ZM251.714 25.2499C249.723 28.1369 245.972 32.5249 243.378 34.9999C238.923 39.2509 238.773 39.3149 240.685 36.1659C243.841 30.9659 254.088 18.7539 254.744 19.4099C255.068 19.7339 253.704 22.3619 251.714 25.2499ZM128 31.4409C128 32.7839 127.55 34.1599 127 34.4999C126.417 34.8609 126 33.8439 126 32.0589C126 30.3769 126.45 28.9999 127 28.9999C127.55 28.9999 128 30.0979 128 31.4409ZM213.653 41.5379C215.343 45.9429 205.803 59.9999 201.123 59.9999C195.976 59.9999 197.966 52.1029 204.936 44.8729C209.733 39.8959 212.602 38.7979 213.653 41.5379ZM101.418 49.7989C101.318 54.7309 97.3746 61.1839 92.7096 64.0499C81.9966 70.6289 85.2416 55.8999 96.4186 47.2139C100.283 44.2119 101.517 44.8499 101.418 49.7989ZM150.985 57.5269C151.002 60.9729 148.574 64.9999 146.478 64.9999C145.144 64.9999 143 62.0999 143 60.2939C143 59.8329 144.413 57.7409 146.14 55.6459C149.591 51.4589 150.957 51.9899 150.985 57.5269Z" fill="black"/>
</svg>
